HIERARCHY
ROOT Hips
{
	OFFSET -0.001795 -0.223333 0.028219
	CHANNELS 6 Xposition Yposition Zposition Zrotation Yrotation Xrotation 
	JOINT LeftUpLeg
	{
		OFFSET 0.069520 -0.091406 -0.006815
		CHANNELS 3 Zrotation Yrotation Xrotation
		JOINT LeftLeg
		{
			OFFSET 0.034277 -0.375199 -0.004496
			CHANNELS 3 Zrotation Yrotation Xrotation
			JOINT LeftFoot
			{
				OFFSET -0.013596 -0.397961 -0.043693
				CHANNELS 3 Zrotation Yrotation Xrotation
				JOINT LeftToe
				{
					OFFSET 0.026358 -0.055791 0.119288
					CHANNELS 3 Zrotation Yrotation Xrotation
					End Site
					{
						OFFSET 0.000000 0.000000 0.000000
					}
				}
			}
		}
	}
	JOINT RightUpLeg
	{
		OFFSET -0.067670 -0.090522 -0.004320
		CHANNELS 3 Zrotation Yrotation Xrotation
		JOINT RightLeg
		{
			OFFSET -0.038290 -0.382569 -0.008850
			CHANNELS 3 Zrotation Yrotation Xrotation
			JOINT RightFoot
			{
				OFFSET 0.015774 -0.398415 -0.042312
				CHANNELS 3 Zrotation Yrotation Xrotation
				JOINT RightToe
				{
					OFFSET -0.025372 -0.048144 0.123348
					CHANNELS 3 Zrotation Yrotation Xrotation
					End Site
					{
						OFFSET 0.000000 0.000000 0.000000
					}
				}
			}
		}
	}
	JOINT Spine
	{
		OFFSET -0.002533 0.108963 -0.026696
		CHANNELS 3 Zrotation Yrotation Xrotation
		JOINT Spine1
		{
			OFFSET 0.005487 0.135180 0.001092
			CHANNELS 3 Zrotation Yrotation Xrotation
			JOINT Spine2
			{
				OFFSET 0.001457 0.052922 0.025425
				CHANNELS 3 Zrotation Yrotation Xrotation
				JOINT Neck
				{
					OFFSET -0.002778 0.213870 -0.042857
					CHANNELS 3 Zrotation Yrotation Xrotation
					JOINT Head
					{
						OFFSET 0.005152 0.064970 0.051349
						CHANNELS 3 Zrotation Yrotation Xrotation
						End Site
						{
							OFFSET 0.000000 0.000000 0.000000
						}
					}
				}
				JOINT LeftShoulder
				{
					OFFSET 0.078845 0.121749 -0.034090
					CHANNELS 3 Zrotation Yrotation Xrotation
					JOINT LeftArm
					{
						OFFSET 0.090977 0.030469 -0.008868
						CHANNELS 3 Zrotation Yrotation Xrotation
						JOINT LeftForeArm
						{
							OFFSET 0.259612 -0.012772 -0.027456
							CHANNELS 3 Zrotation Yrotation Xrotation
							JOINT LeftHand
							{
								OFFSET 0.249234 0.008986 -0.001171
								CHANNELS 3 Zrotation Yrotation Xrotation
								End Site
								{
									OFFSET 0.000000 0.000000 0.000000
								}
							}
						}
					}
				}
				JOINT RightShoulder
				{
					OFFSET -0.081759 0.118833 -0.038615
					CHANNELS 3 Zrotation Yrotation Xrotation
					JOINT RightArm
					{
						OFFSET -0.096012 0.032551 -0.009143
						CHANNELS 3 Zrotation Yrotation Xrotation
						JOINT RightForeArm
						{
							OFFSET -0.253742 -0.013329 -0.021401
							CHANNELS 3 Zrotation Yrotation Xrotation
							JOINT RightHand
							{
								OFFSET -0.255298 0.007772 -0.005559
								CHANNELS 3 Zrotation Yrotation Xrotation
								End Site
								{
									OFFSET 0.000000 0.000000 0.000000
								}
							}
						}
					}
				}
			}
		}
	}
}
MOTION
Frames: 13
Frame Time: 0.050000
0.048399 0.947739 0.018800 -3.896153 0.732998 7.545645 12.177696 -0.483920 4.503472 -4.985022 0.455312 -6.866572 12.781754 24.016756 17.926969 0.000000 0.000000 0.000000 -1.745116 0.793127 -8.355002 2.983238 -0.328073 -1.148486 -0.329168 -6.328494 14.882482 0.000000 0.000000 0.000000 0.302983 -0.337629 7.020858 7.487572 -0.989687 -25.654006 -2.772427 -18.769277 27.637214 -2.740018 0.175453 -28.449764 0.000000 0.000000 0.000000 -17.140351 -6.935866 6.862575 -62.510282 -31.182530 8.600657 -26.498196 -62.932047 25.487707 0.000000 0.000000 0.000000 6.050915 6.252673 0.376601 63.145589 6.816565 -6.727189 3.105117 40.018879 0.847642 0.000000 0.000000 0.000000 
0.048654 0.947525 0.019381 -3.880737 0.718103 7.564838 12.150154 -0.482649 4.545201 -4.952639 0.452686 -6.997959 12.708100 23.966993 17.214473 0.000000 0.000000 0.000000 -1.501476 0.801087 -8.352777 2.621356 -0.288580 -0.854912 -0.420253 -6.264014 14.054313 0.000000 0.000000 0.000000 0.229264 -0.323667 6.872767 7.669920 -1.047151 -25.462004 -2.748098 -18.159196 27.395001 -2.196911 -0.030225 -27.875801 0.000000 0.000000 0.000000 -17.003429 -6.370491 6.387355 -61.519062 -29.576270 7.310153 -23.415187 -60.701713 22.199434 0.000000 0.000000 0.000000 6.148535 5.873632 0.276213 63.375099 5.730309 -7.248095 3.724999 41.796193 1.149406 0.000000 0.000000 0.000000 
0.049245 0.947664 0.019533 -3.794831 0.233593 7.615997 11.864962 -0.441863 4.511330 -4.746379 0.451612 -6.763842 12.632233 23.867762 16.946054 0.000000 0.000000 0.000000 -1.539532 0.833999 -8.727056 2.574962 -0.269909 -0.179971 -0.430488 -6.276379 13.767871 0.000000 0.000000 0.000000 0.175897 -0.320480 6.956523 7.805142 -1.077509 -25.477740 -2.854312 -17.611213 27.622657 -1.603154 -0.333774 -27.700609 0.000000 0.000000 0.000000 -17.203597 -5.907978 6.137585 -60.553270 -28.446651 6.296852 -17.165829 -56.511954 16.467065 0.000000 0.000000 0.000000 6.765554 5.181305 -0.117330 63.452406 4.743284 -7.700855 4.710466 43.321767 1.554659 0.000000 0.000000 0.000000 
0.050041 0.947561 0.019147 -3.722638 -0.468887 7.667601 11.565191 -0.393578 4.535274 -4.858239 0.467068 -6.716369 12.682308 23.954487 16.414402 0.000000 0.000000 0.000000 -1.431177 0.865204 -9.007288 2.186154 -0.218388 0.221543 -0.427784 -6.086947 12.782290 0.000000 0.000000 0.000000 0.099575 -0.312961 7.015210 8.051640 -1.143038 -25.402209 -2.910353 -16.903610 27.682601 -0.697350 -0.795221 -27.467717 0.000000 0.000000 0.000000 -17.318391 -5.391600 5.842648 -59.165158 -27.043928 5.073681 -11.611904 -51.243125 11.532877 0.000000 0.000000 0.000000 7.174113 4.385647 -0.504667 63.468401 3.502601 -8.293424 6.770052 45.563567 2.437195 0.000000 0.000000 0.000000 
0.050994 0.947674 0.018262 -3.589578 -0.990752 7.951570 11.333851 -0.362902 4.374024 -4.752628 0.467792 -6.821158 12.817614 24.102888 16.659866 0.000000 0.000000 0.000000 -1.507436 0.940805 -9.851490 2.153847 -0.197377 0.921261 -0.413933 -6.098377 12.649314 0.000000 0.000000 0.000000 -0.199462 -0.289292 7.199743 8.749224 -1.286022 -25.491087 -3.336790 -16.886615 27.853695 -0.520425 -0.959073 -27.192506 0.000000 0.000000 0.000000 -18.117185 -4.589033 5.644337 -57.681226 -26.037160 4.051151 -7.354780 -45.077827 7.788651 0.000000 0.000000 0.000000 7.255754 3.997790 -0.729758 63.793212 2.293250 -9.030446 9.890268 48.208915 3.797302 0.000000 0.000000 0.000000 
0.051974 0.947389 0.016891 -3.571310 -1.802477 8.171078 11.248736 -0.331504 4.341228 -4.692065 0.474221 -7.002387 13.056924 24.388713 16.807484 0.000000 0.000000 0.000000 -1.498864 1.016419 -10.628588 2.106856 -0.172941 1.592980 -0.381375 -5.919713 11.908213 0.000000 0.000000 0.000000 -0.394960 -0.271922 7.343620 9.251928 -1.372326 -25.707936 -3.655621 -16.629579 28.428436 0.064961 -1.336531 -27.207040 0.000000 0.000000 0.000000 -18.762542 -3.986636 5.539808 -56.036737 -25.528311 3.258189 -4.690664 -40.560416 5.705254 0.000000 0.000000 0.000000 7.578014 3.501013 -1.052124 64.322733 1.353660 -9.702466 13.297869 50.784279 5.497428 0.000000 0.000000 0.000000 
0.052838 0.947623 0.015336 -3.510156 -2.306165 8.436279 11.054052 -0.305778 4.003896 -4.821134 0.486449 -7.129656 13.336547 24.722755 17.087049 0.000000 0.000000 0.000000 -1.580748 1.069667 -11.212139 2.066501 -0.159719 1.844756 -0.256429 -5.687073 11.710531 0.000000 0.000000 0.000000 -0.597750 -0.252863 7.464735 9.823815 -1.511815 -25.514375 -3.996066 -16.407444 28.315751 -0.230767 -1.185074 -27.038131 0.000000 0.000000 0.000000 -19.125165 -3.537594 5.377206 -54.862687 -24.911883 2.671724 -3.095237 -38.540715 4.710909 0.000000 0.000000 0.000000 7.865734 3.074520 -1.321663 65.235921 0.227808 -10.499621 16.174323 53.502637 7.185449 0.000000 0.000000 0.000000 
0.053555 0.947616 0.013928 -3.363755 -2.720248 8.398426 11.033811 -0.287963 3.816335 -4.826724 0.493842 -6.906657 13.282048 24.624361 17.223425 0.000000 0.000000 0.000000 -1.737846 1.095430 -11.557993 1.975884 -0.137115 2.257230 0.013175 -4.983076 11.035109 0.000000 0.000000 0.000000 -1.018041 -0.211327 7.611819 9.935815 -1.545646 -25.433583 -4.180593 -16.547246 28.491846 -0.505760 -1.100469 -26.935953 0.000000 0.000000 0.000000 -19.425918 -3.258755 5.372047 -54.214736 -25.058489 2.569166 -1.414244 -38.342447 4.123276 0.000000 0.000000 0.000000 8.140031 2.789348 -1.569448 65.570761 -0.747688 -11.150134 18.752680 55.049053 8.628121 0.000000 0.000000 0.000000 
0.054207 0.947872 0.012803 -3.143036 -2.786661 8.218548 10.937106 -0.275427 3.894080 -4.985984 0.504204 -6.836295 13.213765 24.535941 17.181272 0.000000 0.000000 0.000000 -1.859867 1.059814 -11.246261 1.771773 -0.116673 2.126287 0.221569 -4.495633 10.802719 0.000000 0.000000 0.000000 -1.369135 -0.173634 7.600260 9.749583 -1.529865 -25.261958 -4.273129 -16.516465 28.531245 -1.133850 -0.744852 -26.987783 0.000000 0.000000 0.000000 -19.475146 -3.239361 5.366579 -53.917665 -25.161813 2.555765 -0.590123 -40.671509 4.248653 0.000000 0.000000 0.000000 8.473304 2.756104 -1.679900 65.942410 -1.279935 -11.493028 18.521027 55.583851 8.614649 0.000000 0.000000 0.000000 
0.055037 0.948173 0.011869 -3.032945 -2.687891 7.862472 11.013054 -0.274579 4.145386 -5.171601 0.512324 -6.950389 12.995866 24.243689 17.183033 0.000000 0.000000 0.000000 -2.071864 1.002308 -10.744569 1.728124 -0.119363 1.866227 0.424336 -4.105006 10.869394 0.000000 0.000000 0.000000 -1.523955 -0.166880 7.902760 9.433732 -1.455543 -25.345794 -4.364235 -16.528199 28.566826 -1.730992 -0.401327 -27.069001 0.000000 0.000000 0.000000 -19.624430 -3.609738 5.581019 -53.875812 -25.854326 2.888312 0.025627 -44.862246 4.718854 0.000000 0.000000 0.000000 8.778709 3.045110 -1.635886 65.786829 -0.978535 -11.228124 16.748913 54.437144 7.552439 0.000000 0.000000 0.000000 
0.055949 0.948240 0.010920 -2.908765 -2.356813 7.600078 11.267438 -0.295323 4.263949 -5.496463 0.525858 -6.901693 12.660689 23.839510 16.748517 0.000000 0.000000 0.000000 -2.185408 0.953239 -10.282344 1.716840 -0.129799 1.491555 0.352732 -4.241509 10.980908 0.000000 0.000000 0.000000 -1.618609 -0.158892 7.894265 8.816227 -1.315604 -25.392142 -4.181683 -16.834109 28.661420 -2.514683 0.025170 -27.462651 0.000000 0.000000 0.000000 -20.042801 -4.193958 6.059960 -54.670884 -27.195844 3.631081 0.443112 -48.972037 5.349338 0.000000 0.000000 0.000000 8.609110 3.531779 -1.401078 65.697090 -0.003809 -10.697544 14.125001 51.955554 5.948010 0.000000 0.000000 0.000000 
0.056793 0.948689 0.009958 -2.873456 -2.034629 7.443251 11.592179 -0.322875 4.346643 -5.827235 0.537031 -7.047291 12.339877 23.427038 16.585264 0.000000 0.000000 0.000000 -2.241916 0.898913 -9.705339 1.931777 -0.164119 1.125090 0.176059 -4.643314 11.256963 0.000000 0.000000 0.000000 -1.719348 -0.157095 8.155303 8.688970 -1.295526 -25.319533 -4.313620 -16.978738 28.384719 -3.315093 0.496916 -27.499939 0.000000 0.000000 0.000000 -20.333017 -4.443171 6.239618 -55.475210 -28.055374 4.250711 -0.426003 -53.144897 6.594729 0.000000 0.000000 0.000000 8.774803 4.165255 -1.176291 65.279009 1.474610 -9.691587 10.929101 49.412554 4.246644 0.000000 0.000000 0.000000 
0.057417 0.948783 0.009015 -3.064306 -1.953131 7.211671 12.088484 -0.353599 4.688246 -6.018464 0.543024 -7.225696 12.016992 22.994581 16.451816 0.000000 0.000000 0.000000 -2.143172 0.861182 -9.230338 2.005060 -0.179490 0.830286 0.299835 -4.457397 11.442279 0.000000 0.000000 0.000000 -1.729670 -0.161322 8.278947 8.401917 -1.262452 -25.061516 -3.972732 -17.015237 28.130687 -3.548335 0.641134 -27.807100 0.000000 0.000000 0.000000 -20.417275 -4.890717 6.526738 -55.816899 -29.148781 4.897184 -0.900457 -55.661638 7.399326 0.000000 0.000000 0.000000 8.811282 4.819980 -0.910871 64.879543 3.029787 -8.699783 8.068828 47.295679 2.881978 0.000000 0.000000 0.000000 
